<svg width="33" height="15" viewBox="0 0 33 15" fill="none" xmlns="http://www.w3.org/2000/svg">
<rect x="5.68967" y="2.30859" width="27.3103" height="9.23077" rx="4.61538" fill="#FF0000"/>
<path d="M14.2931 7.5C14.2931 11.3726 11.1989 14.5 7.39655 14.5C3.59422 14.5 0.5 11.3726 0.5 7.5C0.5 3.62744 3.59422 0.5 7.39655 0.5C11.1989 0.5 14.2931 3.62744 14.2931 7.5Z" fill="white" stroke="#FF0000"/>
<path d="M10.2414 7.5018L5.97318 9.99829L5.97507 5.00199L10.2414 7.5018Z" fill="#FF0000"/>
<path d="M16.2471 8.46094V4.82457H17.0159V7.82706H18.5749V8.46094H16.2471ZM19.8528 4.82457V8.46094H19.084V4.82457H19.8528ZM21.1423 4.82457L22.0212 7.58736H22.055L22.9356 4.82457H23.7879L22.5344 8.46094H21.5436L20.2883 4.82457H21.1423ZM24.2256 8.46094V4.82457H26.6759V5.45845H24.9944V6.32493H26.5498V6.95881H24.9944V7.82706H26.683V8.46094H24.2256Z" fill="white"/>
</svg>
