<svg width="278" height="164" viewBox="0 0 278 164" fill="none" xmlns="http://www.w3.org/2000/svg">
<g clip-path="url(#clip0_100_152)">
<path fill-rule="evenodd" clip-rule="evenodd" d="M10.7773 27.458C10.8393 27.3983 10.9163 27.3506 11.0031 27.3182C11.0899 27.2859 11.1843 27.2696 11.2796 27.2707C13.8487 27.5674 16.3913 28.0036 18.8907 28.5763C23.3763 29.643 27.7084 31.1071 31.811 32.9429C33.6599 33.7858 35.411 34.717 37.139 35.5985L37.4133 35.7403C38.5481 36.3712 39.7219 36.9531 40.9299 37.4838L41.0134 37.5145C41.4107 37.7701 41.8148 38.0421 42.2257 38.3305L42.6021 38.4685C47.2339 40.3732 51.1861 42.9782 54.1447 45.0123C54.4574 45.2369 54.7778 45.4782 55.1058 45.7362C52.2547 42.889 49.754 39.8155 47.6405 36.5611C46.6983 35.0604 45.8584 33.5554 45.0603 32.0658L44.9862 31.8326C44.4634 30.8566 43.8955 29.8647 43.2273 28.8766L43.1623 28.8116C42.9446 28.2771 42.7712 27.731 42.6434 27.1771L42.4626 26.4919L43.22 26.8521C45.1149 27.7887 46.8621 28.9146 48.4219 30.204C51.5305 32.8843 54.098 35.9572 56.0268 39.3062C57.7575 42.1291 59.2289 45.0605 60.6524 47.8939L61.8029 50.214C61.8591 50.2826 61.8853 50.3648 61.877 50.4473C61.8731 50.5374 61.8427 50.6255 61.7884 50.7038C65.3483 53.5535 69.141 56.199 73.1399 58.6217C75.7439 60.1799 78.5052 61.5514 81.3934 62.7212C79.9941 61.6028 78.6598 60.4258 77.3905 59.1902C74.3995 56.2775 71.7958 53.1093 69.6242 49.7398C68.682 48.239 67.86 46.701 67.044 45.2445L66.9282 44.9959C66.4134 43.9828 65.8261 42.9958 65.1692 42.04L65.1646 41.9559C64.9123 41.4329 64.7182 40.8922 64.5848 40.3402L64.404 39.6551L65.2032 40.0306C67.1053 40.9596 68.8544 42.0862 70.4074 43.3829C73.2149 45.6918 75.7122 48.6716 78.01 52.4847C79.699 55.2923 81.1703 58.2237 82.5943 61.0573C82.9779 61.8306 83.3753 62.6091 83.7867 63.3927C83.8154 63.4512 83.8326 63.5132 83.8376 63.5762C83.8607 63.626 83.8607 63.626 83.8421 63.6604C92.6833 66.8613 102.306 68.2455 111.382 67.4877L111.563 68.1728C104.785 68.6993 97.947 68.1788 91.4007 66.6383C91.3781 66.6469 91.3579 66.659 91.3411 66.6741C91.3244 66.6892 91.3115 66.7069 91.3031 66.7262C89.821 67.6363 88.1924 68.3723 86.4641 68.9129C83.0798 69.9832 79.0683 70.4515 74.1897 70.3957C70.5605 70.3442 66.8569 70.0588 63.2554 69.7696C62.2561 69.7058 61.2757 69.6351 60.3141 69.5577C60.2176 69.5739 60.1173 69.5658 60.0263 69.5346C59.9137 69.4856 59.8192 69.4124 59.753 69.3227C59.6868 69.233 59.6514 69.1302 59.6505 69.0252C59.6607 68.9459 59.6939 68.8697 59.7473 68.8031C59.8007 68.7366 59.8728 68.6815 59.9574 68.6426C62.1282 67.8429 64.3745 67.1901 66.6739 66.6905C70.8275 65.7503 75.1143 65.2688 79.4219 65.2586C81.3457 65.2212 83.279 65.3525 85.1886 65.434L85.4769 65.4573C86.1214 65.5009 86.7579 65.5281 87.3865 65.5387C82.9872 64.2398 78.7882 62.52 74.8758 60.4145C72.9862 60.9651 71.0082 61.2827 69.0059 61.357C65.2837 61.4775 61.1156 60.9393 56.2741 59.7002C52.7199 58.7683 49.1335 57.618 45.6903 56.4806C44.7178 56.1789 43.7654 55.8708 42.8331 55.5564C42.7393 55.5496 42.6509 55.5172 42.582 55.4643C42.4785 55.4006 42.4034 55.3106 42.3682 55.2082C42.333 55.1058 42.3396 54.9967 42.3872 54.8978C42.413 54.8257 42.4644 54.7617 42.5348 54.714C42.6053 54.6662 42.6914 54.637 42.7822 54.6299C45.2435 54.43 47.7188 54.3725 50.1899 54.4579C54.6459 54.6211 59.0614 55.229 63.3397 56.268C65.2496 56.7206 67.1451 57.292 68.9984 57.848L69.2913 57.9554C70.0813 58.1627 70.9358 58.4348 71.7864 58.6226C67.9028 56.1706 64.1892 53.5413 60.6628 50.747C60.2779 50.4685 59.9001 50.1786 59.5295 49.8775L59.4691 49.8966C57.5298 50.4129 55.5075 50.6866 53.4696 50.7086C49.766 50.7947 45.6119 50.138 40.8263 48.7957C37.2488 47.8141 33.6759 46.5451 30.2706 45.3375L27.432 44.379C27.3469 44.3475 27.2686 44.3048 27.2 44.2527C27.0966 44.1889 27.0214 44.0989 26.9862 43.9965C26.951 43.8941 26.9577 43.7851 27.0052 43.6861C27.0509 43.62 27.1139 43.5631 27.1895 43.5195C27.2651 43.4759 27.3515 43.4466 27.4425 43.4337C29.9115 43.2908 32.3896 43.2895 34.8588 43.4298C39.3261 43.6963 43.7388 44.4002 48.0038 45.5267C49.8948 46.014 51.8138 46.6348 53.6485 47.2252L53.8996 47.3173C55.0984 47.733 56.3218 48.0989 57.5652 48.4137C56.2417 47.4331 54.9599 46.4679 53.6173 45.5216C50.2444 43.0838 46.5485 40.9671 42.5995 39.2116L42.4788 39.2498C40.3515 39.3895 38.2112 39.2982 36.1128 38.9783C32.247 38.3449 28.1564 37.0097 23.6153 34.8492C20.2291 33.236 16.9122 31.4008 13.7005 29.6454C12.7994 29.1498 11.9114 28.6591 11.0363 28.1733C10.947 28.1385 10.8725 28.0825 10.8224 28.0124C10.7418 27.937 10.6937 27.8417 10.6855 27.7415C10.6774 27.6412 10.7096 27.5416 10.7773 27.458ZM74.1112 69.7064C78.8883 69.7662 82.8137 69.2663 86.0783 68.2355C87.1309 67.9237 88.1393 67.5186 89.0859 67.0276C80.3212 68.2286 74.3998 68.9874 65.2542 69.2233C68.1772 69.4702 71.1791 69.6627 74.1112 69.7064ZM85.5367 66.18L85.2066 66.1414C83.3574 66.0408 81.4052 65.9443 79.542 65.9622C75.2993 65.9852 71.0769 66.4471 66.9739 67.3369C65.4339 67.6914 63.9179 68.1135 62.4326 68.6012C73.3442 68.4348 79.2648 67.6763 89.4944 66.2695C89.4779 66.2645 89.4604 66.2623 89.4429 66.2629C89.4253 66.2636 89.4081 66.2671 89.3923 66.2733C88.0819 66.2879 86.7655 66.2179 85.5351 66.1794L85.5367 66.18ZM77.2431 52.6986C75.3565 49.434 72.8487 46.4387 69.8145 43.826C68.9179 43.1177 67.9713 42.4537 66.9797 41.8373C72.7716 48.4584 76.3181 52.6485 80.9805 59.5988C79.8073 57.3116 78.6158 54.978 77.2431 52.6986ZM65.9317 41.7415L65.9549 41.7913C66.6231 42.7793 67.1709 43.8051 67.6952 44.7816L67.8297 44.9958C68.6278 46.4854 69.4075 48.0089 70.3681 49.4757C72.5031 52.7908 75.07 55.9046 78.0237 58.7618C79.1625 59.8864 80.3698 60.9627 81.641 61.9865C76.1468 53.6146 72.4453 49.2471 65.9317 41.7415ZM56.4845 59.0334C61.1815 60.2607 65.2475 60.8027 68.8444 60.6362C70.0001 60.5853 71.1504 60.4699 72.2872 60.2907C63.1518 59.2103 57.0464 58.4568 47.8395 56.4835C50.6967 57.4076 53.5728 58.2969 56.4807 59.0335L56.4845 59.0334ZM69.1012 58.5849L68.7897 58.5119C66.9359 57.9557 65.0824 57.4002 63.1914 56.9128C58.9752 55.9216 54.6327 55.3401 50.2524 55.1801C48.5941 55.1074 46.9319 55.118 45.2751 55.2118C56.1657 57.6789 62.3134 58.4479 72.9308 59.659L72.8473 59.6284C71.5601 59.3212 70.2501 58.965 69.1027 58.5855L69.1012 58.5849ZM40.9945 48.1129C45.6776 49.4587 49.7481 50.0848 53.3913 50.0178C54.5413 49.9887 55.6866 49.8844 56.8166 49.706C47.4245 48.4501 41.537 47.5688 32.4881 45.4062C35.2849 46.3494 38.1236 47.3079 40.9945 48.1129ZM57.4586 49.0748C56.1297 48.7524 54.8383 48.3617 53.6487 47.9667L53.3975 47.8746C51.5623 47.284 49.6854 46.6782 47.8364 46.2067C43.6336 45.0893 39.2823 44.3942 34.8771 44.1367C33.1916 44.0415 31.5372 44.0125 29.9138 44.0499C40.7578 46.7884 46.8912 47.6764 57.4997 49.0904L57.4579 49.0751L57.4586 49.0748ZM59.0174 46.4689C57.8669 44.1488 56.6746 41.8134 55.2821 39.5695C53.0314 35.8556 50.5986 32.9416 47.854 30.697C46.9744 29.9694 46.0339 29.2935 45.0393 28.6745C50.6348 35.0989 54.3339 39.4696 59.0179 46.4681L59.0174 46.4689ZM56.0624 45.6331C57.2018 46.7386 58.4138 47.802 59.6983 48.8234C54.2032 40.4532 50.5039 36.0839 43.9473 28.5631C43.9533 28.5645 43.9588 28.5671 43.9634 28.5706C43.968 28.5741 43.9716 28.5784 43.9738 28.5832C43.976 28.588 43.9769 28.5932 43.9763 28.5983C43.9757 28.6035 43.9737 28.6084 43.9704 28.6128C44.6326 29.5863 45.2276 30.5897 45.7525 31.6184L45.887 31.8326C46.6433 33.3069 47.4649 34.8458 48.3832 36.297C50.5425 39.6201 53.116 42.7493 56.0624 45.6331ZM23.9924 34.244C28.4521 36.3746 32.4149 37.6629 36.1971 38.2657C37.753 38.5272 39.3406 38.6385 40.9278 38.5975C39.8826 38.2142 38.4671 37.7776 36.7742 37.198C32.2911 35.7601 25.1177 33.4598 15.4733 29.7994C18.2424 31.3507 21.0708 32.8836 23.9932 34.2438L23.9924 34.244ZM37.0071 36.5822C37.4375 36.7125 37.8541 36.8378 38.257 36.9581L36.9933 36.3298L36.7191 36.188C35.0514 35.2874 33.3 34.3566 31.4745 33.563C27.442 31.7523 23.1792 30.3136 18.7636 29.2732C16.9645 28.8587 15.1408 28.5204 13.2997 28.2598C24.18 32.4146 32.1473 35.0066 37.0071 36.5822Z" fill="url(#paint0_linear_100_152)"/>
<path d="M93.0531 106.689C94.5839 113.554 89.5398 119.873 83.8511 125.023C81.9934 126.717 80.0831 128.371 78.1222 129.984C78.1251 129.988 78.1268 129.993 78.1271 129.998C78.1273 130.003 78.1262 130.008 78.1238 130.013C78.1214 130.018 78.1177 130.022 78.113 130.025C78.1084 130.028 78.1029 130.031 78.0969 130.032C78.0634 130.042 78.0276 130.046 77.992 130.044C77.9564 130.041 77.922 130.032 77.8913 130.016C77.841 129.979 77.8246 129.943 77.8422 129.911C78.6213 126.5 80.0098 123.204 81.9624 120.128C83.9088 117.04 86.252 114.134 88.9517 111.458C90.3528 110.046 91.7797 108.585 92.6322 106.943L88.7861 109.208C84.0027 112.094 79.2366 115.016 74.275 117.835C72.3178 118.965 70.3295 120.065 68.3102 121.134C68.5689 126.099 63.9275 130.03 59.0717 133.181C57.5328 134.192 55.8927 135.195 54.2783 136.15L54.252 136.198L54.2094 136.212L54.0912 136.168C54.0772 136.169 54.0632 136.167 54.0504 136.162C54.0376 136.157 54.0263 136.15 54.0174 136.141C54.0085 136.132 54.0022 136.122 53.9991 136.111C53.9959 136.099 53.9961 136.088 53.9994 136.076L53.983 136.041C55.9055 131.436 59.7466 127.476 64.4618 124.127C65.6662 123.335 66.7591 122.434 67.7202 121.441C67.3542 121.638 66.9828 121.822 66.6059 121.995C65.334 122.698 64.0088 123.333 62.6386 123.897C61.3004 124.46 59.8749 124.87 58.4018 125.116L58.2743 125.156C58.0888 125.216 57.9087 125.286 57.7353 125.367C56.4871 125.62 55.2561 125.928 54.0478 126.29C52.1349 126.814 50.222 127.338 48.2006 127.735C43.7399 128.589 39.1608 128.951 34.5841 128.809C31.8974 128.763 29.2215 128.514 26.5898 128.066C26.5219 128.061 26.4826 128.046 26.4716 128.023C26.4389 127.952 26.4225 127.917 26.5078 127.89L26.5505 127.877C31.1385 126.991 35.6281 125.895 40.2324 125.045C44.4263 124.188 48.7387 123.788 53.059 123.856C54.6854 123.907 56.3036 124.071 57.8967 124.346C58.0237 124.299 58.1592 124.27 58.2977 124.259C59.8539 123.929 61.3591 123.453 62.7841 122.841C65.4702 121.628 68.0723 120.293 70.5783 118.842C72.6427 117.731 74.6624 116.595 76.6373 115.432C74.9903 115.772 73.386 116.238 71.8457 116.826C70.1649 117.459 68.4381 118.005 66.6753 118.461C62.7443 119.479 58.6555 120.023 54.5355 120.078C52.1345 120.138 49.7319 120.019 47.3568 119.723C47.289 119.718 47.2496 119.703 47.2387 119.68C47.2223 119.645 47.2322 119.561 47.2749 119.548L47.3176 119.534C51.4159 118.44 55.4158 117.135 59.488 116.09C63.1833 115.08 67.0402 114.527 70.9326 114.449C73.0375 114.432 75.1355 114.652 77.1681 115.103C79.9064 113.51 82.5858 111.896 85.2223 110.295C88.6327 108.248 91.9994 106.216 95.4415 104.237C93.4544 104.556 91.5068 105.023 89.6227 105.633C87.5581 106.265 85.455 106.809 83.322 107.262C78.8053 108.124 74.1595 108.437 69.5328 108.19C66.9155 108.056 64.3182 107.729 61.7722 107.211C61.7667 107.214 61.7606 107.215 61.7543 107.216C61.7481 107.216 61.7418 107.215 61.7361 107.213C61.7304 107.211 61.7254 107.207 61.7214 107.203C61.7174 107.199 61.7145 107.195 61.7131 107.19C61.7003 107.187 61.6885 107.181 61.6787 107.174C61.6689 107.167 61.6613 107.157 61.6566 107.147C61.6518 107.137 61.65 107.126 61.6513 107.115C61.6525 107.104 61.6569 107.094 61.6639 107.084C61.6633 107.073 61.6659 107.061 61.6717 107.051C61.6774 107.04 61.686 107.031 61.6968 107.023C61.7076 107.016 61.7204 107.011 61.7341 107.008C61.7478 107.006 61.762 107.006 61.7756 107.009C66.6196 106.042 71.3937 104.814 76.2099 103.899C80.4806 103.073 84.843 102.542 89.2332 102.81C91.5117 102.938 93.7572 103.329 95.9045 103.97C97.123 103.289 98.3552 102.603 99.6011 101.913C100.613 101.35 101.637 100.811 102.671 100.295L103.049 101.105C99.6531 102.865 96.3653 104.753 93.0518 106.689L93.0531 106.689Z" fill="url(#paint1_linear_100_152)"/>
<path d="M97.8248 83.559C97.7563 84.7084 97.4141 85.8354 96.8179 86.8761C96.2397 87.992 95.4688 89.0333 94.5291 89.9677C93.54 90.9992 92.3672 91.9015 91.0505 92.6441C89.4084 93.5369 87.5748 94.1637 85.6477 94.4911C81.6199 95.1699 77.915 94.0011 77.5927 92.2294C77.5507 91.9486 77.5777 91.6637 77.672 91.3917C77.7664 91.1197 77.9262 90.8661 78.1419 90.646C78.966 89.7036 80.293 89.0249 81.6662 88.3466C83.1487 87.6816 84.6779 87.0897 86.2455 86.5739C87.8473 86.0086 89.5406 85.4431 91.3254 84.8775C92.2714 84.5759 93.2478 84.2744 94.2548 83.9728C85.9437 84.7731 77.522 84.1833 69.4942 82.2387C67.9933 82.6012 66.4356 82.779 64.8715 82.7664C63.1168 82.7839 61.3657 82.6321 59.6539 82.314C57.8778 82.0191 56.1551 81.5377 54.5277 80.8817C52.7702 80.1885 51.1865 79.2293 49.8593 78.0542C47.3419 75.7934 47.4796 73.4559 49.6764 72.9282C50.4208 72.7443 51.2119 72.7313 51.9646 72.8906C53.5379 73.2029 55.0595 73.6712 56.4959 74.2852C57.9842 74.9321 59.4346 75.6366 60.842 76.3964C62.3067 77.1504 63.7714 77.904 65.2819 78.7711C66.8944 79.6527 68.4669 80.5832 69.996 81.5604C69.9952 81.5656 69.9958 81.5707 69.9978 81.5756C69.9998 81.5805 70.0031 81.585 70.0075 81.5886C70.012 81.5922 70.0174 81.595 70.0233 81.5966C70.0292 81.5983 70.0355 81.5988 70.0417 81.5981C73.5435 82.4239 77.1274 82.9916 80.7513 83.2945C80.0495 83.0934 79.3782 82.8798 78.7374 82.6539C77.2942 82.0835 75.9287 81.3885 74.6639 80.5804C73.4942 79.8258 72.4615 78.9372 71.5973 77.9417C70.7544 76.9725 70.2194 75.8449 70.0412 74.6618C69.8143 72.4382 71.5081 70.8924 73.6592 71.0059C74.3414 71.0548 75.0001 71.2356 75.5816 71.5335C76.706 72.146 77.6964 72.9107 78.511 73.7952C79.3474 74.6878 80.0972 75.6333 80.7535 76.6228C81.5044 77.6619 82.1918 78.7312 82.8131 79.8268C83.4945 81.0157 84.0465 82.2521 84.4624 83.5214C91.3099 83.7455 98.1564 83.0581 104.738 81.4856L104.967 82.202C102.623 82.7788 100.238 83.232 97.8248 83.559Z" fill="white"/>
</g>
<g clip-path="url(#clip1_100_152)">
<path fill-rule="evenodd" clip-rule="evenodd" d="M267.157 20.4815C267.095 20.4217 267.018 20.3738 266.932 20.3412C266.845 20.3085 266.751 20.2919 266.656 20.2926C264.087 20.5893 261.544 21.0255 259.045 21.5982C254.559 22.6649 250.227 24.129 246.125 25.9648C244.276 26.8077 242.525 27.7389 240.797 28.6204L240.522 28.7622C239.387 29.3931 238.214 29.975 237.006 30.5057L236.922 30.5364C236.525 30.792 236.121 31.064 235.71 31.3524L235.334 31.4905C230.702 33.3951 226.749 36.0002 223.791 38.0342C223.478 38.2588 223.158 38.5001 222.83 38.7581C225.681 35.9109 228.182 32.8374 230.295 29.583C231.237 28.0823 232.077 26.5774 232.875 25.0878L232.949 24.8545C233.472 23.8786 234.04 22.8866 234.708 21.8986L234.773 21.8335C234.991 21.299 235.164 20.7529 235.292 20.199L235.472 19.5149L234.714 19.875C232.82 20.8116 231.072 21.9374 229.513 23.2267C226.404 25.907 223.837 28.9799 221.908 32.3289C220.177 35.1518 218.706 38.0832 217.282 40.9166L216.132 43.2367C216.076 43.3053 216.05 43.3876 216.058 43.47C216.062 43.5602 216.092 43.6482 216.146 43.7265C212.586 46.5762 208.794 49.2217 204.795 51.6445C202.191 53.2027 199.429 54.5744 196.54 55.7443C197.94 54.6259 199.274 53.4489 200.543 52.2133C203.534 49.3006 206.138 46.1324 208.31 42.7629C209.252 41.2621 210.074 39.7241 210.89 38.2676L211.006 38.019C211.52 37.0059 212.108 36.0189 212.765 35.0631L212.769 34.979C213.021 34.456 213.216 33.9153 213.349 33.3633L213.53 32.6782L212.731 33.0537C210.828 33.9828 209.079 35.1096 207.527 36.4064C204.717 38.716 202.219 41.6951 199.922 45.5085C198.233 48.3161 196.761 51.2475 195.337 54.0811C194.954 54.8545 194.556 55.633 194.145 56.4166C194.116 56.4751 194.099 56.5371 194.094 56.6001C194.071 56.6498 194.071 56.6498 194.09 56.6842C185.25 59.8844 175.628 61.2678 166.551 60.5108L166.371 61.1963C173.149 61.7228 179.987 61.2024 186.533 59.6618C186.556 59.6704 186.576 59.6826 186.593 59.6976C186.61 59.7127 186.623 59.7304 186.631 59.7497C188.113 60.6598 189.742 61.3958 191.47 61.9364C194.854 63.0067 198.865 63.4729 203.744 63.4188C207.373 63.3673 211.077 63.0819 214.678 62.7927C215.679 62.7284 216.659 62.6573 217.619 62.5795C217.716 62.5957 217.816 62.5876 217.907 62.5562C218.02 62.5072 218.114 62.434 218.181 62.3443C218.247 62.2546 218.282 62.1518 218.283 62.0469C218.273 61.9675 218.24 61.8914 218.186 61.8248C218.133 61.7582 218.061 61.7031 217.976 61.6643C215.805 60.8646 213.559 60.2117 211.26 59.7122C207.106 58.7719 202.819 58.2904 198.512 58.2803C196.588 58.2428 194.655 58.3742 192.745 58.4556L192.457 58.4789C191.812 58.5223 191.176 58.5497 190.548 58.5612C194.947 57.2622 199.145 55.5423 203.058 53.4368C204.947 53.9874 206.925 54.305 208.927 54.3793C212.65 54.4991 216.818 53.9614 221.659 52.7219C225.214 51.79 228.8 50.6397 232.243 49.5022C233.216 49.2005 234.168 48.8925 235.1 48.5781C235.194 48.5712 235.283 48.5388 235.352 48.486C235.455 48.4222 235.53 48.3322 235.565 48.2298C235.601 48.1274 235.594 48.0184 235.546 47.9194C235.521 47.8474 235.469 47.7834 235.399 47.7356C235.328 47.6879 235.242 47.6586 235.151 47.6515C232.69 47.4516 230.215 47.3941 227.744 47.4796C223.288 47.6428 218.872 48.2506 214.594 49.2897C212.684 49.7422 210.788 50.3137 208.935 50.8696L208.642 50.9771C207.852 51.1843 206.998 51.4564 206.147 51.6442C210.031 49.1922 213.744 46.5629 217.271 43.7687C217.656 43.4901 218.033 43.2003 218.404 42.8991L218.464 42.9182C220.404 43.4345 222.426 43.7082 224.464 43.7302C228.168 43.8163 232.322 43.1596 237.107 41.8173C240.685 40.8357 244.258 39.5667 247.663 38.3592L250.502 37.4006C250.587 37.3691 250.665 37.3265 250.734 37.2743C250.837 37.2106 250.912 37.1206 250.947 37.0182C250.983 36.9158 250.976 36.8067 250.928 36.7077C250.883 36.6417 250.82 36.5848 250.744 36.5411C250.668 36.4975 250.582 36.4682 250.491 36.4554C248.022 36.3124 245.544 36.3111 243.075 36.4514C238.608 36.7179 234.195 37.4218 229.93 38.5483C228.039 39.0357 226.12 39.6564 224.285 40.2468L224.034 40.3389C222.835 40.7547 221.612 41.1206 220.368 41.4353C221.692 40.4548 222.974 39.4896 224.316 38.5433C227.689 36.1054 231.385 33.9887 235.334 32.2332L235.455 32.2714C237.582 32.4113 239.722 32.3203 241.82 32.0006C245.686 31.3671 249.777 30.0319 254.318 27.8715C257.704 26.2582 261.021 24.4231 264.233 22.6677C265.134 22.172 266.022 21.6813 266.897 21.1955C266.986 21.1608 267.061 21.1047 267.111 21.0346C267.191 20.9594 267.239 20.8644 267.248 20.7644C267.256 20.6645 267.224 20.565 267.157 20.4815ZM203.823 62.73C199.046 62.7897 195.12 62.2898 191.856 61.259C190.803 60.9472 189.795 60.5422 188.848 60.0511C197.613 61.2519 203.535 62.0107 212.68 62.2468C209.757 62.4932 206.755 62.6862 203.823 62.73ZM192.397 59.2035L192.727 59.1649C194.577 59.0643 196.529 58.9678 198.392 58.9858C202.635 59.0088 206.857 59.4706 210.96 60.3604C212.5 60.715 214.016 61.137 215.501 61.6248C204.59 61.4584 198.669 60.6998 188.44 59.293C188.456 59.288 188.474 59.2858 188.491 59.2864C188.509 59.2871 188.526 59.2906 188.542 59.2968C189.852 59.3114 191.169 59.2414 192.399 59.2029L192.397 59.2035ZM200.691 45.7217C202.577 42.4571 205.085 39.4618 208.119 36.8491C209.016 36.1408 209.962 35.4768 210.954 34.8604C205.163 41.4823 201.615 45.6707 196.953 52.6219C198.122 50.3362 199.315 48.0008 200.689 45.7225L200.691 45.7217ZM212.002 34.7651L211.979 34.8148C211.311 35.8028 210.763 36.8286 210.239 37.8051L210.104 38.0193C209.306 39.5089 208.526 41.0325 207.566 42.4992C205.431 45.8144 202.864 48.9281 199.91 51.7853C198.771 52.9099 197.564 53.9862 196.293 55.0101C201.788 46.6398 205.489 42.2706 212.002 34.7651ZM221.449 52.0569C216.752 53.2842 212.686 53.8243 209.09 53.6597C207.933 53.6087 206.783 53.493 205.646 53.3135C214.781 52.2331 220.887 51.4796 230.094 49.5063C227.236 50.4305 224.36 51.3198 221.452 52.0564L221.449 52.0569ZM208.833 51.608L209.144 51.535C210.998 50.9788 212.851 50.4233 214.742 49.9359C218.959 48.9448 223.301 48.3634 227.682 48.2036C229.34 48.131 231.002 48.1416 232.659 48.2353C221.768 50.7024 215.621 51.4714 205.003 52.6825L205.087 52.6519C206.374 52.3448 207.684 51.9885 208.831 51.609L208.833 51.608ZM236.939 41.136C232.256 42.4818 228.186 43.1079 224.542 43.0409C223.392 43.0118 222.247 42.9075 221.117 42.7291C230.509 41.4731 236.397 40.5919 245.446 38.4293C242.649 39.3725 239.81 40.331 236.939 41.136ZM220.475 42.0979C221.804 41.7755 223.095 41.3848 224.285 40.9898L224.536 40.8977C226.371 40.3071 228.248 39.7013 230.097 39.2298C234.3 38.1124 238.651 37.4173 243.057 37.1598C244.742 37.0646 246.397 37.0356 248.02 37.073C237.175 39.8115 231.039 40.6996 220.435 42.1127L220.477 42.0973L220.475 42.0979ZM218.916 39.492C220.067 37.1719 221.259 34.8365 222.652 32.5925C224.903 28.8791 227.337 25.964 230.079 23.7209C230.959 22.9933 231.899 22.3174 232.894 21.6984C227.3 28.1262 223.599 32.4935 218.916 39.4928L218.916 39.492ZM221.871 38.6562C220.732 39.7617 219.52 40.8251 218.235 41.8465C223.731 33.4763 227.43 29.1075 233.986 21.5862C233.98 21.5876 233.975 21.5902 233.97 21.5937C233.966 21.5972 233.962 21.6015 233.96 21.6063C233.958 21.6111 233.957 21.6163 233.957 21.6214C233.958 21.6266 233.96 21.6315 233.963 21.6359C233.301 22.6088 232.707 23.6116 232.182 24.6397L232.048 24.8539C231.291 26.3282 230.47 27.8671 229.551 29.3183C227.392 32.6422 224.818 35.7717 221.871 38.6562ZM253.941 27.2671C249.482 29.3977 245.519 30.686 241.737 31.2888C240.181 31.5503 238.593 31.6616 237.006 31.6206C238.051 31.2373 239.467 30.8007 241.16 30.2211C245.643 28.7832 252.816 26.4829 262.46 22.8225C259.691 24.3734 256.863 25.9067 253.941 27.2673L253.941 27.2671ZM240.927 29.6053C240.496 29.7356 240.08 29.8609 239.677 29.9812L240.94 29.3529L241.215 29.2111C242.882 28.3105 244.634 27.3797 246.459 26.5861C250.492 24.7754 254.754 23.3367 259.17 22.2963C260.969 21.8818 262.793 21.5435 264.634 21.2829C253.754 25.4377 245.786 28.0297 240.927 29.6053Z" fill="url(#paint2_linear_100_152)"/>
<path d="M184.946 99.6882C183.416 106.552 188.46 112.872 194.148 118.022C196.006 119.716 197.916 121.37 199.877 122.983C199.874 122.988 199.873 122.993 199.872 122.998C199.872 123.003 199.873 123.008 199.876 123.013C199.878 123.018 199.882 123.022 199.887 123.025C199.892 123.028 199.898 123.031 199.904 123.032C199.937 123.042 199.972 123.046 200.008 123.043C200.043 123.04 200.077 123.031 200.107 123.016C200.157 122.978 200.174 122.943 200.156 122.91C199.377 119.5 197.989 116.203 196.037 113.128C194.091 110.04 191.748 107.133 189.048 104.457C187.647 103.045 186.22 101.585 185.367 99.9423L189.213 102.21C193.996 105.095 198.762 108.018 203.724 110.836C205.681 111.966 207.669 113.066 209.687 114.134C209.431 119.099 214.072 123.029 218.928 126.18C220.467 127.191 222.107 128.195 223.721 129.149L223.747 129.198L223.79 129.211L223.908 129.168C223.922 129.169 223.936 129.166 223.949 129.162C223.962 129.157 223.973 129.15 223.982 129.141C223.991 129.132 223.997 129.121 224 129.11C224.004 129.099 224.003 129.087 224 129.076L224.017 129.041C222.094 124.435 218.253 120.475 213.538 117.127C212.333 116.334 211.24 115.433 210.279 114.441C210.645 114.637 211.017 114.822 211.394 114.995C212.666 115.698 213.991 116.333 215.361 116.896C216.699 117.46 218.125 117.87 219.598 118.115L219.725 118.155C219.911 118.215 220.091 118.285 220.264 118.366C221.512 118.62 222.743 118.928 223.952 119.289C225.865 119.814 227.778 120.338 229.799 120.734C234.26 121.589 238.839 121.95 243.415 121.809C246.102 121.762 248.778 121.513 251.41 121.066C251.478 121.06 251.517 121.046 251.528 121.022C251.561 120.952 251.577 120.917 251.492 120.89L251.449 120.876C246.861 119.991 242.371 118.895 237.767 118.044C233.572 117.187 229.259 116.787 224.938 116.855C223.312 116.907 221.695 117.07 220.103 117.345C219.976 117.298 219.84 117.269 219.702 117.259C218.146 116.928 216.64 116.452 215.215 115.84C212.529 114.627 209.927 113.292 207.421 111.842C205.357 110.731 203.337 109.594 201.362 108.432C203.009 108.771 204.614 109.238 206.154 109.826C207.835 110.458 209.561 111.004 211.324 111.461C215.255 112.478 219.344 113.023 223.464 113.078C225.865 113.137 228.268 113.019 230.643 112.723C230.711 112.717 230.75 112.703 230.761 112.679C230.777 112.644 230.767 112.561 230.725 112.547L230.682 112.534C226.584 111.439 222.584 110.134 218.511 109.089C214.816 108.079 210.959 107.526 207.067 107.449C204.962 107.431 202.864 107.651 200.831 108.102C198.093 106.509 195.414 104.895 192.777 103.294C189.367 101.247 186.001 99.2138 182.558 97.237C184.545 97.5555 186.493 98.0226 188.377 98.6325C190.441 99.2647 192.545 99.8083 194.678 100.261C199.194 101.124 203.84 101.436 208.467 101.189C211.084 101.055 213.68 100.727 216.226 100.209C216.231 100.212 216.237 100.213 216.244 100.214C216.25 100.214 216.256 100.213 216.262 100.211C216.268 100.209 216.273 100.206 216.277 100.202C216.281 100.198 216.284 100.193 216.285 100.188C216.298 100.185 216.31 100.179 216.32 100.172C216.329 100.165 216.337 100.156 216.342 100.145C216.347 100.135 216.348 100.124 216.347 100.113C216.346 100.102 216.341 100.092 216.334 100.082C216.335 100.071 216.332 100.059 216.327 100.049C216.321 100.038 216.312 100.029 216.302 100.022C216.291 100.014 216.278 100.009 216.264 100.007C216.251 100.004 216.236 100.004 216.223 100.007C211.379 99.0405 206.605 97.8124 201.788 96.8967C197.516 96.0706 193.155 95.5386 188.765 95.8076C186.486 95.9376 184.241 96.3293 182.094 96.9713C180.876 96.2899 179.644 95.6042 178.398 94.9141C177.385 94.3517 176.362 93.8124 175.328 93.2961L174.95 94.1056C178.346 95.8654 181.634 97.7529 184.947 99.689L184.946 99.6882Z" fill="url(#paint3_linear_100_152)"/>
<path d="M197.14 78.559C197.209 79.7085 197.551 80.8358 198.147 81.8766C198.725 82.9923 199.496 84.0334 200.435 84.9677C201.424 85.9992 202.597 86.9015 203.914 87.6441C205.555 88.5367 207.388 89.1635 209.314 89.4911C213.342 90.1699 217.047 89.0011 217.369 87.2294C217.411 86.9486 217.384 86.6637 217.29 86.3917C217.196 86.1197 217.036 85.8661 216.82 85.646C215.996 84.7036 214.669 84.0249 213.296 83.3466C211.814 82.6817 210.286 82.0898 208.719 81.5739C207.118 81.0086 205.424 80.4431 203.64 79.8775C202.694 79.5759 201.717 79.2744 200.71 78.9728C209.021 79.7731 217.443 79.1833 225.471 77.2387C226.972 77.6012 228.529 77.779 230.093 77.7664C231.848 77.7839 233.599 77.6321 235.311 77.314C237.087 77.0191 238.81 76.5377 240.437 75.8817C242.195 75.1885 243.778 74.2293 245.106 73.0542C247.623 70.7924 247.485 68.4549 245.288 67.9273C244.544 67.7437 243.753 67.731 243 67.8906C241.427 68.2029 239.905 68.6712 238.469 69.2852C236.981 69.9321 235.53 70.6366 234.123 71.3964C232.658 72.1504 231.193 72.904 229.683 73.7711C228.07 74.6527 226.498 75.5832 224.969 76.5604C224.97 76.5656 224.969 76.5707 224.967 76.5756C224.965 76.5805 224.962 76.585 224.957 76.5886C224.953 76.5922 224.948 76.595 224.942 76.5966C224.936 76.5983 224.929 76.5988 224.923 76.5981C221.422 77.424 217.838 77.9919 214.214 78.295C214.916 78.0938 215.587 77.8803 216.228 77.6543C217.671 77.084 219.037 76.3889 220.302 75.5809C221.471 74.8262 222.504 73.9376 223.368 72.9421C224.21 71.9727 224.744 70.8452 224.921 69.6623C225.15 67.4382 223.457 65.8924 221.306 66.0059C220.623 66.0548 219.965 66.2356 219.383 66.5335C218.259 67.146 217.268 67.9107 216.454 68.7952C215.618 69.6879 214.87 70.6333 214.214 71.6228C213.463 72.6619 212.776 73.7312 212.155 74.8268C211.474 76.0158 210.922 77.2521 210.507 78.5214C203.659 78.7458 196.811 78.0583 190.229 76.4856L190 77.2039C192.343 77.7799 194.728 78.2326 197.14 78.559Z" fill="white"/>
</g>
<rect x="74.6521" y="42.4069" width="110.93" height="113.614" transform="rotate(-16.5714 74.6521 42.4069)" stroke="#3C8F7C"/>
<rect x="62.7069" y="80.8791" width="116" height="114" transform="rotate(-43.7201 62.7069 80.8791)" stroke="#FFB842"/>
<rect x="81.321" y="127.488" width="110.967" height="107.12" rx="53.56" transform="rotate(-80.5915 81.321 127.488)" fill="white"/>
<path d="M162.42 112.57C162.28 112.57 162.17 112.53 162.09 112.45C162.01 112.39 162.01 112.34 162.09 112.3C162.53 112.22 162.91 112.06 163.23 111.82C163.55 111.56 163.81 111.24 164.01 110.86C164.43 110.16 164.84 109.46 165.24 108.76C165.66 108.04 166.06 107.32 166.44 106.6C166.9 105.72 167.37 104.84 167.85 103.96C168.33 103.06 168.81 102.17 169.29 101.29C169.75 100.47 170.16 99.68 170.52 98.92C170.88 98.16 171.15 97.61 171.33 97.27C171.47 97.01 171.71 96.78 172.05 96.58C172.41 96.36 172.76 96.19 173.1 96.07C172.98 96.07 172.86 96.07 172.74 96.07C172.62 96.05 172.49 96.04 172.35 96.04C171.73 96.04 171.05 96.08 170.31 96.16C169.59 96.22 168.88 96.32 168.18 96.46C167.5 96.6 166.9 96.79 166.38 97.03C165.86 97.27 165.51 97.56 165.33 97.9C165.25 98.08 165.18 98.26 165.12 98.44C165.06 98.62 165.03 98.8 165.03 98.98C165.03 99.44 165.19 99.77 165.51 99.97C165.53 99.97 165.54 99.99 165.54 100.03C165.54 100.07 165.5 100.11 165.42 100.15C165.36 100.19 165.31 100.2 165.27 100.18C165.07 100.08 164.84 99.84 164.58 99.46C164.34 99.06 164.18 98.73 164.1 98.47C164.04 98.23 164.01 98.01 164.01 97.81C164.01 97.29 164.18 96.89 164.52 96.61C164.86 96.31 165.29 96.1 165.81 95.98C166.33 95.84 166.86 95.76 167.4 95.74C167.96 95.7 168.45 95.68 168.87 95.68C169.51 95.68 170.27 95.68 171.15 95.68C172.03 95.66 172.84 95.65 173.58 95.65C173.76 95.65 173.96 95.65 174.18 95.65C174.4 95.63 174.63 95.62 174.87 95.62C175.41 95.62 175.97 95.65 176.55 95.71C177.13 95.77 177.66 95.9 178.14 96.1C178.62 96.3 178.99 96.61 179.25 97.03C179.65 97.65 179.85 98.31 179.85 99.01C179.85 99.79 179.62 100.53 179.16 101.23C178.72 101.91 178.16 102.51 177.48 103.03C176.8 103.55 176.11 103.95 175.41 104.23C174.75 104.49 174.01 104.67 173.19 104.77C172.39 104.87 171.67 104.92 171.03 104.92C170.83 104.92 170.63 104.92 170.43 104.92C170.25 104.9 170.09 104.88 169.95 104.86C169.91 104.86 169.89 104.84 169.89 104.8C169.89 104.72 169.97 104.61 170.13 104.47C170.29 104.31 170.42 104.24 170.52 104.26C170.68 104.28 170.84 104.29 171 104.29C171.16 104.29 171.33 104.29 171.51 104.29C172.27 104.29 173.08 104.19 173.94 103.99C174.8 103.79 175.59 103.41 176.31 102.85C177.05 102.27 177.61 101.43 177.99 100.33C178.09 100.09 178.15 99.85 178.17 99.61C178.21 99.35 178.23 99.1 178.23 98.86C178.23 98.18 178.06 97.58 177.72 97.06C177.38 96.54 176.89 96.24 176.25 96.16C176.17 96.14 176.08 96.13 175.98 96.13C175.88 96.13 175.78 96.13 175.68 96.13C175.3 96.13 174.88 96.18 174.42 96.28C173.98 96.38 173.65 96.57 173.43 96.85C172.93 97.51 172.45 98.26 171.99 99.1C171.53 99.92 171.09 100.76 170.67 101.62C170.25 102.46 169.85 103.25 169.47 103.99C169.37 104.19 169.18 104.55 168.9 105.07C168.62 105.57 168.31 106.15 167.97 106.81C167.63 107.45 167.31 108.09 167.01 108.73C166.71 109.37 166.47 109.94 166.29 110.44C166.13 110.94 166.09 111.28 166.17 111.46C166.19 111.48 166.2 111.51 166.2 111.55C166.2 111.61 166.17 111.64 166.11 111.64C165.95 111.64 165.79 111.6 165.63 111.52C165.47 111.44 165.28 111.4 165.06 111.4C164.86 111.4 164.66 111.45 164.46 111.55C164.26 111.63 164 111.78 163.68 112C163.36 112.22 163 112.4 162.6 112.54C162.56 112.56 162.5 112.57 162.42 112.57Z" fill="#C70039"/>
<path d="M153.3 88.775C152.817 88.775 152.317 88.6 151.8 88.25C151.3 87.9167 150.775 87.3667 150.225 86.6C150.008 86.2833 149.775 85.925 149.525 85.525C149.292 85.125 149.058 84.7167 148.825 84.3C148.558 84.5667 148.283 84.825 148 85.075C147.717 85.3083 147.375 85.55 146.975 85.8C146.292 86.2333 145.633 86.5417 145 86.725C144.367 86.925 143.767 87.025 143.2 87.025C142.617 87.025 142.083 86.925 141.6 86.725C141.133 86.525 140.75 86.2583 140.45 85.925C140 85.425 139.775 84.8417 139.775 84.175C139.775 83.5583 139.933 82.9917 140.25 82.475C140.583 81.9583 140.967 81.5083 141.4 81.125C142.083 80.525 142.833 80.0167 143.65 79.6C144.467 79.1667 145.258 78.725 146.025 78.275L146.05 78.25C145.867 77.6667 145.775 77.1083 145.775 76.575C145.775 76.425 145.783 76.275 145.8 76.125C145.833 75.9583 145.858 75.8 145.875 75.65C146.008 75.05 146.267 74.6167 146.65 74.35C147.05 74.0667 147.45 73.925 147.85 73.925C148.233 73.925 148.558 74.0333 148.825 74.25C149.108 74.4667 149.25 74.7667 149.25 75.15C149.25 75.5 149.117 75.8583 148.85 76.225C148.583 76.5917 148.267 76.9333 147.9 77.25C147.55 77.5667 147.217 77.8333 146.9 78.05C147.033 78.3667 147.217 78.7833 147.45 79.3C147.7 79.8 147.958 80.3167 148.225 80.85H151.575C151.808 80.85 152.042 80.85 152.275 80.85C152.525 80.8333 152.708 80.775 152.825 80.675C152.858 80.6417 152.892 80.6333 152.925 80.65C152.958 80.6667 152.958 80.7083 152.925 80.775L152.475 81.45C152.425 81.5667 152.325 81.625 152.175 81.625C152.125 81.625 152.067 81.625 152 81.625C151.933 81.625 151.85 81.6167 151.75 81.6C151.55 81.5667 151.333 81.5417 151.1 81.525C150.883 81.4917 150.658 81.4667 150.425 81.45C150.358 81.75 150.25 82.075 150.1 82.425C149.95 82.775 149.783 83.0917 149.6 83.375C149.9 83.8917 150.2 84.3917 150.5 84.875C150.8 85.3417 151.075 85.7417 151.325 86.075C151.825 86.7083 152.292 87.1583 152.725 87.425C153.158 87.6917 153.558 87.825 153.925 87.825C154.492 87.825 155 87.6083 155.45 87.175C155.917 86.7583 156.333 86.3083 156.7 85.825C156.75 85.7583 156.8 85.725 156.85 85.725C156.933 85.725 156.975 85.775 156.975 85.875C156.975 85.975 156.942 86.0583 156.875 86.125C156.292 86.9417 155.708 87.5833 155.125 88.05C154.542 88.5333 153.933 88.775 153.3 88.775ZM146.8 77.775C147.283 77.4417 147.717 77.0667 148.1 76.65C148.5 76.2167 148.758 75.7833 148.875 75.35C148.892 75.3 148.9 75.25 148.9 75.2C148.9 75.15 148.9 75.1083 148.9 75.075C148.9 74.7917 148.808 74.5833 148.625 74.45C148.442 74.3 148.233 74.225 148 74.225C147.733 74.225 147.458 74.3333 147.175 74.55C146.908 74.75 146.717 75.0917 146.6 75.575C146.583 75.675 146.567 75.775 146.55 75.875C146.55 75.975 146.55 76.075 146.55 76.175C146.55 76.4917 146.575 76.8 146.625 77.1C146.692 77.3833 146.75 77.6083 146.8 77.775ZM144.175 85.8C145.092 85.8 145.933 85.65 146.7 85.35C147.05 85.2167 147.383 85.0167 147.7 84.75C148.033 84.4833 148.333 84.1917 148.6 83.875C148.45 83.5917 148.258 83.225 148.025 82.775C147.792 82.325 147.542 81.825 147.275 81.275C146.942 81.2917 146.558 81.35 146.125 81.45C145.692 81.55 145.317 81.7167 145 81.95C144.7 82.1833 144.567 82.5167 144.6 82.95C144.6 83.0667 144.625 83.2167 144.675 83.4C144.742 83.5667 144.783 83.675 144.8 83.725L144.6 83.875C144.483 83.6583 144.325 83.3917 144.125 83.075C143.942 82.7583 143.842 82.525 143.825 82.375C143.808 82.225 143.808 82.0417 143.825 81.825C143.858 81.6083 143.975 81.4167 144.175 81.25C144.392 81.0667 144.692 80.95 145.075 80.9C145.458 80.8333 145.858 80.8 146.275 80.8C146.408 80.8 146.542 80.8083 146.675 80.825C146.808 80.825 146.933 80.825 147.05 80.825C146.9 80.4583 146.742 80.0833 146.575 79.7C146.425 79.3167 146.275 78.9333 146.125 78.55L145.9 78.7C145.25 79.1 144.567 79.5417 143.85 80.025C143.15 80.5083 142.558 81.05 142.075 81.65C141.858 81.9167 141.667 82.2417 141.5 82.625C141.35 83.0083 141.275 83.3917 141.275 83.775C141.275 83.9917 141.308 84.2167 141.375 84.45C141.458 84.6667 141.583 84.8667 141.75 85.05C142.033 85.3167 142.383 85.5083 142.8 85.625C143.233 85.7417 143.692 85.8 144.175 85.8ZM149.325 82.9C149.475 82.6667 149.617 82.4167 149.75 82.15C149.883 81.8667 149.992 81.6167 150.075 81.4C149.808 81.3667 149.542 81.3417 149.275 81.325C149.008 81.3083 148.733 81.2917 148.45 81.275C148.633 81.5917 148.792 81.8917 148.925 82.175C149.075 82.4583 149.208 82.7 149.325 82.9Z" fill="#C70039"/>
<path d="M128.16 66.69C127.66 66.69 127.15 66.53 126.63 66.21C126.13 65.91 125.62 65.42 125.1 64.74C124.46 63.86 123.92 63.02 123.48 62.22C123.04 61.42 122.68 60.72 122.4 60.12C122.14 59.52 121.94 59.09 121.8 58.83C121.8 58.83 121.85 58.77 121.95 58.65C122.05 58.51 122.17 58.38 122.31 58.26C122.47 58.12 122.6 58.05 122.7 58.05C123.64 58.05 124.48 58.04 125.22 58.02C125.98 57.98 126.65 57.86 127.23 57.66C127.83 57.44 128.36 57.07 128.82 56.55C129.28 56.03 129.67 55.29 129.99 54.33C130.09 54.09 130.15 53.85 130.17 53.61C130.21 53.35 130.23 53.1 130.23 52.86C130.23 52.18 130.06 51.58 129.72 51.06C129.38 50.54 128.89 50.24 128.25 50.16C128.17 50.14 128.08 50.13 127.98 50.13C127.88 50.13 127.78 50.13 127.68 50.13C127.3 50.13 126.88 50.18 126.42 50.28C125.98 50.38 125.65 50.57 125.43 50.85C124.93 51.51 124.45 52.26 123.99 53.1C123.53 53.92 123.09 54.76 122.67 55.62C122.25 56.46 121.85 57.25 121.47 57.99C121.37 58.19 121.18 58.55 120.9 59.07C120.62 59.57 120.31 60.15 119.97 60.81C119.63 61.45 119.31 62.09 119.01 62.73C118.71 63.37 118.47 63.94 118.29 64.44C118.13 64.94 118.09 65.28 118.17 65.46C118.19 65.48 118.2 65.51 118.2 65.55C118.2 65.61 118.17 65.64 118.11 65.64C117.95 65.64 117.79 65.6 117.63 65.52C117.47 65.44 117.28 65.4 117.06 65.4C116.86 65.4 116.66 65.45 116.46 65.55C116.26 65.63 116 65.78 115.68 66C115.36 66.22 115 66.4 114.6 66.54C114.56 66.56 114.5 66.57 114.42 66.57C114.28 66.57 114.17 66.53 114.09 66.45C114.01 66.39 114.01 66.34 114.09 66.3C114.53 66.22 114.91 66.06 115.23 65.82C115.55 65.56 115.81 65.24 116.01 64.86C116.43 64.16 116.84 63.46 117.24 62.76C117.66 62.04 118.06 61.32 118.44 60.6C118.9 59.72 119.37 58.84 119.85 57.96C120.33 57.06 120.81 56.17 121.29 55.29C121.75 54.47 122.16 53.68 122.52 52.92C122.88 52.16 123.15 51.61 123.33 51.27C123.47 51.01 123.71 50.78 124.05 50.58C124.41 50.36 124.76 50.19 125.1 50.07C124.98 50.07 124.86 50.07 124.74 50.07C124.62 50.05 124.49 50.04 124.35 50.04C123.73 50.04 123.05 50.08 122.31 50.16C121.59 50.22 120.88 50.32 120.18 50.46C119.5 50.6 118.9 50.79 118.38 51.03C117.86 51.27 117.51 51.56 117.33 51.9C117.25 52.08 117.18 52.26 117.12 52.44C117.06 52.62 117.03 52.8 117.03 52.98C117.03 53.44 117.19 53.77 117.51 53.97C117.53 53.97 117.54 53.99 117.54 54.03C117.54 54.07 117.5 54.11 117.42 54.15C117.36 54.19 117.31 54.2 117.27 54.18C117.07 54.08 116.84 53.84 116.58 53.46C116.34 53.06 116.18 52.73 116.1 52.47C116.04 52.23 116.01 52.01 116.01 51.81C116.01 51.29 116.18 50.89 116.52 50.61C116.86 50.31 117.29 50.1 117.81 49.98C118.33 49.84 118.86 49.76 119.4 49.74C119.96 49.7 120.45 49.68 120.87 49.68C121.51 49.68 122.27 49.68 123.15 49.68C124.03 49.66 124.84 49.65 125.58 49.65C125.76 49.65 125.96 49.65 126.18 49.65C126.4 49.63 126.63 49.62 126.87 49.62C127.41 49.62 127.97 49.65 128.55 49.71C129.13 49.77 129.66 49.9 130.14 50.1C130.62 50.3 130.99 50.61 131.25 51.03C131.59 51.59 131.76 52.23 131.76 52.95C131.76 54.05 131.47 54.97 130.89 55.71C130.69 55.97 130.47 56.22 130.23 56.46C129.99 56.7 129.71 56.93 129.39 57.15C128.87 57.51 128.25 57.82 127.53 58.08C126.81 58.32 126.06 58.5 125.28 58.62C124.52 58.74 123.82 58.82 123.18 58.86C123.44 59.42 123.83 60.17 124.35 61.11C124.89 62.05 125.54 62.99 126.3 63.93C126.7 64.43 127.11 64.78 127.53 64.98C127.95 65.18 128.36 65.28 128.76 65.28C129.4 65.28 130 65.09 130.56 64.71C131.14 64.33 131.66 63.89 132.12 63.39C132.6 62.87 132.98 62.42 133.26 62.04C133.32 61.94 133.37 61.89 133.41 61.89C133.47 61.89 133.5 61.95 133.5 62.07C133.5 62.23 133.44 62.39 133.32 62.55C132.4 63.81 131.52 64.82 130.68 65.58C129.84 66.32 129 66.69 128.16 66.69Z" fill="#C70039"/>
<defs>
<linearGradient id="paint0_linear_100_152" x1="88.6391" y1="51.5145" x2="84.7938" y2="5.77611" gradientUnits="userSpaceOnUse">
<stop stop-color="#8D6B35"/>
<stop offset="0.3" stop-color="#C9974C"/>
<stop offset="0.6" stop-color="#FCC270"/>
<stop offset="1" stop-color="#C9974C"/>
</linearGradient>
<linearGradient id="paint1_linear_100_152" x1="123.488" y1="107.673" x2="112.481" y2="161.885" gradientUnits="userSpaceOnUse">
<stop stop-color="#8D6B35"/>
<stop offset="0.3" stop-color="#C9974C"/>
<stop offset="0.6" stop-color="#FCC270"/>
<stop offset="1" stop-color="#C9974C"/>
</linearGradient>
<linearGradient id="paint2_linear_100_152" x1="189.294" y1="44.5374" x2="193.139" y2="-1.19961" gradientUnits="userSpaceOnUse">
<stop stop-color="#8D6B35"/>
<stop offset="0.3" stop-color="#C9974C"/>
<stop offset="0.6" stop-color="#FCC270"/>
<stop offset="1" stop-color="#C9974C"/>
</linearGradient>
<linearGradient id="paint3_linear_100_152" x1="154.511" y1="100.672" x2="165.52" y2="154.886" gradientUnits="userSpaceOnUse">
<stop stop-color="#8D6B35"/>
<stop offset="0.3" stop-color="#C9974C"/>
<stop offset="0.6" stop-color="#FCC270"/>
<stop offset="1" stop-color="#C9974C"/>
</linearGradient>
<clipPath id="clip0_100_152">
<rect width="119" height="127" fill="white" transform="translate(0 17)"/>
</clipPath>
<clipPath id="clip1_100_152">
<rect width="119" height="127" fill="white" transform="translate(159 10)"/>
</clipPath>
</defs>
</svg>
